<?xml version="1.0" encoding="utf-8"?>
<!-- Generator: Adobe Illustrator 18.0.0, SVG Export Plug-In . SVG Version: 6.00 Build 0)  -->
<!DOCTYPE svg PUBLIC "-//W3C//DTD SVG 1.1//EN" "http://www.w3.org/Graphics/SVG/1.1/DTD/svg11.dtd">
<svg version="1.1" id="Ebene_1" xmlns="http://www.w3.org/2000/svg" xmlns:xlink="http://www.w3.org/1999/xlink" x="0px" y="0px"
	 viewBox="0 0 496.1 90.5" enable-background="new 0 0 496.1 90.5" xml:space="preserve" width="496.1" height="90.5" >
<g>
	<polygon fill="#02100E" points="0,23 38.6,0.8 77.1,23 77.1,67.3 38.6,89.4 0,67.3 	"/>
	<g>
		<polygon fill="#FFFFFF" points="50.7,52.7 74.8,24.4 74.8,24.3 38.6,3.5 2.3,24.3 2.3,65.9 26.4,38.5 		"/>
	</g>
</g>
<g>
	<path fill="#E4003A" d="M125.8,54.7h-8.3v34.8h-14V0.7h22.3c16.1,0,22.8,8.5,22.8,27C148.6,46.4,141.9,54.7,125.8,54.7z
		 M125.3,13.3h-7.9v28.8h7.9c7.5,0,9.3-5.4,9.3-14.3C134.6,18.8,132.8,13.3,125.3,13.3z"/>
	<path fill="#E4003A" d="M186.1,89.5v-5c-1.1,1.5-2.9,3.2-4.5,4.1c-1.9,1.1-4.2,1.9-6.6,1.9c-5.4,0-9-1.6-12-5.1
		c-2.6-3-3.7-6.6-3.7-14.2V23.8h13.2V71c0,5.1,2.9,7.6,6.5,7.6c3.6,0,6.5-2.5,6.5-7.6V23.8h13.2v65.7H186.1z"/>
	<path fill="#E4003A" d="M217.9,85.5c-4.1-3.1-6.6-8.1-6.6-16V0.7h13.2v68c0,5.9,2.9,8.8,9,8.8v11.8
		C227.4,89.5,222.3,88.9,217.9,85.5z"/>
	<path fill="#E4003A" d="M273.6,85.1c-4,4-8.7,5.4-14.3,5.4c-5.6,0-11.1-1.9-14.5-5.4c-3.9-4-5.9-8.6-5.9-14.8H252
		c0,2.6,0.7,4.7,2.2,6.2c1.2,1.4,3.2,2,5,2c2.1,0,3.6-0.5,5.1-1.9c1.2-1.1,1.9-3.1,1.9-5.2c0-1.9-0.4-3.4-1.4-4.9
		c-1-1.5-2.7-2.7-5.1-3.7l-8.7-3.9c-4.5-2-7.7-4.6-9.6-7.6c-1.5-2.4-2.1-5.4-2.1-9c0-6.4,2.2-10.5,5.7-14.1
		c3.6-3.6,8.7-5.5,14.2-5.5c5.5,0,10.5,1.7,13.8,5c3.5,3.4,5.6,8,5.6,14.6h-13c0-2.9-0.6-4.6-1.9-6c-1.2-1.4-2.9-2-4.6-2
		c-2,0-3.7,0.7-4.9,1.9c-1.2,1.2-1.9,3-1.9,5c0,1.6,0.2,2.7,1,3.9c0.9,1.4,2.6,2.7,4.9,3.7l8.7,3.7c4.5,2,7.5,4.1,9.6,7.2
		c1.7,2.5,2.7,6.2,2.7,10.7C279.5,77,277,81.7,273.6,85.1z"/>
	<path fill="#E4003A" d="M300.8,60.4c0,7.5,0.4,13.1,2,15.6c1,1.5,2.7,2.6,5.1,2.6c2.1,0,3.9-0.9,5-2.5c1.1-1.4,1.6-3.7,1.6-6h13.2
		c-0.2,5.9-1.6,10.8-5.6,15.1c-3.5,3.7-8.1,5.2-14.2,5.2c-5.9,0-10.2-1.2-14.2-5.4c-5.5-5.7-6.1-16.6-6.1-28.5
		c0-11.8,0.6-22.8,6.1-28.5c4-4.1,8.7-5.2,14.1-5.2c5.5,0,10,1.1,14.1,5.2c5.2,5.2,6.1,16.7,6.1,32.4H300.8z M312.9,37.1
		c-1.1-1.6-2.6-2.6-5.1-2.6c-2.5,0-4,1-5.1,2.6c-1.4,2-1.9,5.9-1.9,13.6h14C314.7,43,314.2,39.1,312.9,37.1z"/>
	<path fill="#02100E" d="M367.9,85.9c-2.9,2.9-6.9,4.4-12.6,4.4c-5.4,0-9.6-1.2-12.7-4.4c-3.9-4-5.1-8.1-5.1-17.9h5
		c0,7.6,0.9,11.5,3.9,14.5c2,2,5,3.2,9,3.2c4.4,0,7.2-1.2,9.1-3.2c3.4-3.4,4-7.7,4-15.5c0-11.7-1.9-16.2-9.7-19.4l-9.1-3.7
		c-9.1-3.7-11.5-8.8-11.5-22.1c0-7.5,1.9-13.3,5.6-17.1c3-3,7-4.6,12.2-4.6c5.2,0,9.5,1.6,12.5,4.6c4.2,4.4,5,9.1,5,16.4h-5
		c0-6.1-0.9-9.8-3.7-13.1c-2-2.2-4.9-3.5-8.8-3.5c-3.7,0-6.4,1.1-8.3,3c-3.1,3-4.4,8.1-4.4,14.1c0,11.2,1.5,14.7,10.3,18.3l9.1,3.7
		c9.2,3.7,10.8,11.1,10.8,23.2C373.4,76.3,371.8,81.9,367.9,85.9z"/>
	<path fill="#02100E" d="M411.7,89.5V41.6c0-7.6-4.2-11.3-9.6-11.3c-5.4,0-9.6,3.7-9.6,11.3v47.9h-4.7V0.7h4.7V32
		c0.6-1.4,2.2-3,3.2-3.7c2-1.5,4.4-2.4,7.5-2.4c3.9,0,7,1.5,9.3,4c2.5,2.5,3.9,6,3.9,11.8v47.7H411.7z"/>
	<path fill="#02100E" d="M431.1,10.1v-7h7v7H431.1z M432.2,89.5V26.9h4.7v62.6H432.2z"/>
	<path fill="#02100E" d="M459.9,30.8v58.7h-4.7V30.8h-8.1v-3.9h8.1V16.6c0-5.1,1.4-9.1,4.1-11.8c3.2-3.2,7.6-4,12.1-4V5
		c-7.5,0-11.5,3.7-11.5,11.3v10.6h11.5v3.9H459.9z"/>
	<path fill="#02100E" d="M483.3,85.5c-2.7-2.7-4.1-6.7-4.1-11.8V30.8h-8.1v-3.9h8.1V7.7h4.7v19.2h11.5v3.9H484v43.1
		c0,8.1,4.4,11.3,12.1,11.3v4.2C491.3,89.5,486.8,89,483.3,85.5z"/>
</g>
</svg>
