<svg version="1" xmlns="http://www.w3.org/2000/svg" width="160" height="160" viewBox="0 0 120.000000 120.000000"><path d="M19.7 1.4C12.2 3.4 7 7.7 3.5 14.5l-3 5.9-.3 37.3C-.1 99 .2 101.8 6 109.8c1.7 2.4 5.2 5.3 8.2 6.9l5.3 2.8 38.4.3c44.7.4 46.3.1 54.1-7.8 7.7-7.7 8-9.4 8-51.4 0-39.9-.3-42.6-6.1-50.5-2-2.9-4.9-5.1-8.7-6.9L99.5.5 62 .3C33.4.1 23.4.4 19.7 1.4zm59.6 22.9c2 1.5 3.8 4.1 4.5 6.5 1.3 4.3 1.6 25 .4 26.8-.4.7-1.8 1.4-3.2 1.5l-2.5.4-.3 18.4c-.1 11.5-.7 18.9-1.3 19.8-1.3 1.4-5.7 1.7-7.7.5-1-.7-1.4-9.7-1.9-39.2l-.6-38.3 4.6.5c2.8.3 6 1.6 8 3.1zM36.8 34.8l.3 12 3.4 3.1 3.5 3v21.6c0 20.8.1 21.5 2 21.5s2-.7 2-21.3V53.5l3.7-3.1 3.8-3.2.5-12.3c.7-16.3 2.4-15.9 2.8.5l.3 12.5-3.6 3.5-3.5 3.5v20.9c0 22.6-.1 23.2-5.5 23.2S41 98.4 41 75.7V54.9l-3-2.5c-1.6-1.4-3.4-4.2-4-6.2-1.1-4.1-1.4-22.5-.3-23.6 2.1-2 2.8.9 3.1 12.2zm7.2-1.2c0 8.6-.3 10.4-1.5 10.4S41 42.2 41 33.7c0-5.7.3-10.7.6-11C43.3 21 44 24 44 33.6zm7.5-.5c0 8.6-.3 10.4-1.5 10.4s-1.6-1.8-1.8-9.4c-.3-10.2.1-12.5 2.1-11.8.8.2 1.2 3.3 1.2 10.8z"/><path d="M71 59.9C71 95.3 71 96 73 96c1.9 0 2-.7 2-20V56h7v-9.8c0-14.3-2.2-19.7-8.7-21.7l-2.3-.6v36z"/></svg>